# xmcd
#
# Track frame offsets:
#	150
#	627
#	14794
#	24863
#	36851
#	43149
#	59512
#	65355
#	79949
#	88762
#	103734
#	112287
#	124265
#	125273
#	140205
#	164826
#
# Disc length: 2844 seconds
#
# Revision: 1
# Processed by: cddbd v1.5.2PL0 Copyright (c) Steve Scherf et al.
# Submitted via: audiograbber 1.83.01
#
DISCID=ec0b1a10
DTITLE=Black President - Black President
DYEAR=2009
DGENRE=Punk
TTITLE0=Intro
TTITLE1=Last fucking hope
TTITLE2=So negative
TTITLE3=Not enough
TTITLE4=Suspects
TTITLE5=Neon
TTITLE6=Who do you trust?
TTITLE7=Watch you drink
TTITLE8=Vacate the Vatican
TTITLE9=Hallelujah
TTITLE10=Not amused
TTITLE11=Ask your daddy
TTITLE12=Intro
TTITLE13=Elected
TTITLE14=Iron Fist
TTITLE15=Daten-CD
EXTD=
EXTT0=
EXTT1=
EXTT2=
EXTT3=
EXTT4=
EXTT5=
EXTT6=
EXTT7=
EXTT8=
EXTT9=
EXTT10=
EXTT11=
EXTT12=
EXTT13=
EXTT14=
EXTT15=
PLAYORDER=
